<svg width="200" height="286" viewBox="0 0 200 286" fill="none" xmlns="http://www.w3.org/2000/svg">
<path d="M17 205L31.7224 230.5H2.27757L17 205Z" fill="#383535"/>
<path d="M17 256L2.27757 230.5L31.7224 230.5L17 256Z" fill="#383535"/>
<path d="M51 261L65.7224 286.5H36.2776L51 261Z" fill="#383535"/>
<path d="M51 205L65.7224 230.5H36.2776L51 205Z" fill="#383535"/>
<path d="M51 256L36.2776 230.5L65.7224 230.5L51 256Z" fill="#383535"/>
<path d="M17 262L31.7224 287.5H2.27757L17 262Z" fill="#383535"/>
<path d="M85 261L99.7224 286.5H70.2776L85 261Z" fill="#383535"/>
<path d="M34 177L48.7224 202.5H19.2776L34 177Z" fill="#383535"/>
<path d="M34 228L19.2776 202.5L48.7224 202.5L34 228Z" fill="#383535"/>
<path d="M3.8147e-06 234L14.7224 259.5H-14.7224L3.8147e-06 234Z" fill="#383535"/>
<path d="M1.90735e-06 285L-14.7224 259.5L14.7224 259.5L1.90735e-06 285Z" fill="#383535"/>
<path d="M68 233L82.7224 258.5H53.2776L68 233Z" fill="#383535"/>
<path d="M68 284L53.2776 258.5L82.7224 258.5L68 284Z" fill="#383535"/>
<path d="M34 234L48.7224 259.5H19.2776L34 234Z" fill="#383535"/>
<path d="M34 285L19.2776 259.5L48.7224 259.5L34 285Z" fill="#383535"/>
<path d="M17 146L31.7224 171.5H2.27757L17 146Z" fill="#383535"/>
<path d="M17 197L2.27757 171.5L31.7224 171.5L17 197Z" fill="#383535"/>
<path d="M3.8147e-06 118L14.7224 143.5H-14.7224L3.8147e-06 118Z" fill="#383535"/>
<path d="M1.90735e-06 169L-14.7224 143.5L14.7224 143.5L1.90735e-06 169Z" fill="#383535"/>
<path d="M3.8147e-06 175L14.7224 200.5H-14.7224L3.8147e-06 175Z" fill="#383535"/>
<path d="M1.90735e-06 226L-14.7224 200.5L14.7224 200.5L1.90735e-06 226Z" fill="#383535"/>
<path d="M85 91L99.7224 116.5H70.2776L85 91Z" fill="#383535"/>
<path d="M85 142L70.2776 116.5L99.7224 116.5L85 142Z" fill="#383535"/>
<path d="M51 148L65.7224 173.5H36.2776L51 148Z" fill="#383535"/>
<path d="M51 199L36.2776 173.5L65.7224 173.5L51 199Z" fill="#383535"/>
<path d="M119 147L133.722 172.5H104.278L119 147Z" fill="#383535"/>
<path d="M119 198L104.278 172.5L133.722 172.5L119 198Z" fill="#383535"/>
<path d="M85 205L99.7224 230.5H70.2776L85 205Z" fill="#383535"/>
<path d="M85 256L70.2776 230.5L99.7224 230.5L85 256Z" fill="#383535"/>
<path d="M119 91L133.722 116.5H104.278L119 91Z" fill="#383535"/>
<path d="M119 142L104.278 116.5L133.722 116.5L119 142Z" fill="#383535"/>
<path d="M85 148L99.7224 173.5H70.2776L85 148Z" fill="#383535"/>
<path d="M85 199L70.2776 173.5L99.7224 173.5L85 199Z" fill="#383535"/>
<path d="M153 147L167.722 172.5H138.278L153 147Z" fill="#383535"/>
<path d="M153 198L138.278 172.5L167.722 172.5L153 198Z" fill="#383535"/>
<path d="M119 205L133.722 230.5H104.278L119 205Z" fill="#383535"/>
<path d="M119 256L104.278 230.5L133.722 230.5L119 256Z" fill="#383535"/>
<path d="M102 63L116.722 88.5H87.2776L102 63Z" fill="#383535"/>
<path d="M102 114L87.2776 88.5L116.722 88.5L102 114Z" fill="#383535"/>
<path d="M68 120L82.7224 145.5H53.2776L68 120Z" fill="#383535"/>
<path d="M68 171L53.2776 145.5L82.7224 145.5L68 171Z" fill="#383535"/>
<path d="M136 119L150.722 144.5H121.278L136 119Z" fill="#383535"/>
<path d="M136 170L121.278 144.5L150.722 144.5L136 170Z" fill="#383535"/>
<path d="M102 177L116.722 202.5H87.2776L102 177Z" fill="#383535"/>
<path d="M102 228L87.2776 202.5L116.722 202.5L102 228Z" fill="#383535"/>
<path d="M102 120L116.722 145.5H87.2776L102 120Z" fill="#383535"/>
<path d="M102 171L87.2776 145.5L116.722 145.5L102 171Z" fill="#383535"/>
<path d="M68 177L82.7224 202.5H53.2776L68 177Z" fill="#383535"/>
<path d="M68 228L53.2776 202.5L82.7224 202.5L68 228Z" fill="#383535"/>
<path d="M136 176L150.722 201.5H121.278L136 176Z" fill="#383535"/>
<path d="M136 227L121.278 201.5L150.722 201.5L136 227Z" fill="#383535"/>
<path d="M102 234L116.722 259.5H87.2776L102 234Z" fill="#383535"/>
<path d="M102 285L87.2776 259.5L116.722 259.5L102 285Z" fill="#383535"/>
<path d="M153 -24L167.722 1.5H138.278L153 -24Z" fill="#383535"/>
<path d="M153 27L138.278 1.5L167.722 1.5L153 27Z" fill="#383535"/>
<path d="M119 33L133.722 58.5H104.278L119 33Z" fill="#383535"/>
<path d="M119 84L104.278 58.5L133.722 58.5L119 84Z" fill="#383535"/>
<path d="M187 32L201.722 57.5H172.278L187 32Z" fill="#383535"/>
<path d="M187 83L172.278 57.5L201.722 57.5L187 83Z" fill="#383535"/>
<path d="M153 90L167.722 115.5H138.278L153 90Z" fill="#383535"/>
<path d="M153 141L138.278 115.5L167.722 115.5L153 141Z" fill="#383535"/>
<path d="M187 -24L201.722 1.5H172.278L187 -24Z" fill="#383535"/>
<path d="M187 27L172.278 1.5L201.722 1.5L187 27Z" fill="#383535"/>
<path d="M153 33L167.722 58.5H138.278L153 33Z" fill="#383535"/>
<path d="M153 84L138.278 58.5L167.722 58.5L153 84Z" fill="#383535"/>
<path d="M187 90L201.722 115.5H172.278L187 90Z" fill="#383535"/>
<path d="M187 141L172.278 115.5L201.722 115.5L187 141Z" fill="#383535"/>
<path d="M136 5L150.722 30.5H121.278L136 5Z" fill="#383535"/>
<path d="M136 56L121.278 30.5L150.722 30.5L136 56Z" fill="#383535"/>
<path d="M204 4L218.722 29.5H189.278L204 4Z" fill="#383535"/>
<path d="M204 55L189.278 29.5L218.722 29.5L204 55Z" fill="#383535"/>
<path d="M170 62L184.722 87.5H155.278L170 62Z" fill="#383535"/>
<path d="M170 113L155.278 87.5L184.722 87.5L170 113Z" fill="#383535"/>
<path d="M170 5L184.722 30.5H155.278L170 5Z" fill="#383535"/>
<path d="M170 56L155.278 30.5L184.722 30.5L170 56Z" fill="#383535"/>
<path d="M136 62L150.722 87.5H121.278L136 62Z" fill="#383535"/>
<path d="M136 113L121.278 87.5L150.722 87.5L136 113Z" fill="#383535"/>
<path d="M204 61L218.722 86.5H189.278L204 61Z" fill="#383535"/>
<path d="M204 112L189.278 86.5L218.722 86.5L204 112Z" fill="#383535"/>
<path d="M170 119L184.722 144.5H155.278L170 119Z" fill="#383535"/>
<path d="M170 170L155.278 144.5L184.722 144.5L170 170Z" fill="#383535"/>
<path d="M85 -25L99.7224 0.5H70.2776L85 -25Z" fill="#383535"/>
<path d="M85 26L70.2776 0.500001L99.7224 0.500004L85 26Z" fill="#383535"/>
<path d="M119 -25L133.722 0.5H104.278L119 -25Z" fill="#383535"/>
<path d="M119 26L104.278 0.500001L133.722 0.500004L119 26Z" fill="#383535"/>
<path d="M102 4L116.722 29.5H87.2776L102 4Z" fill="#383535"/>
<path d="M102 55L87.2776 29.5L116.722 29.5L102 55Z" fill="#383535"/>
<path d="M17 -24L31.7224 1.5H2.27757L17 -24Z" fill="#383535"/>
<path d="M17 27L2.27757 1.5L31.7224 1.5L17 27Z" fill="#383535"/>
<path d="M51 32L65.7224 57.5H36.2776L51 32Z" fill="#383535"/>
<path d="M51 83L36.2776 57.5L65.7224 57.5L51 83Z" fill="#383535"/>
<path d="M17 90L31.7224 115.5H2.27757L17 90Z" fill="#383535"/>
<path d="M17 141L2.27757 115.5L31.7224 115.5L17 141Z" fill="#383535"/>
<path d="M51 -24L65.7224 1.5H36.2776L51 -24Z" fill="#383535"/>
<path d="M51 27L36.2776 1.5L65.7224 1.5L51 27Z" fill="#383535"/>
<path d="M17 33L31.7224 58.5H2.27757L17 33Z" fill="#383535"/>
<path d="M17 84L2.27757 58.5L31.7224 58.5L17 84Z" fill="#383535"/>
<path d="M85 32L99.7224 57.5H70.2776L85 32Z" fill="#383535"/>
<path d="M85 83L70.2776 57.5L99.7224 57.5L85 83Z" fill="#383535"/>
<path d="M51 90L65.7224 115.5H36.2776L51 90Z" fill="#383535"/>
<path d="M51 141L36.2776 115.5L65.7224 115.5L51 141Z" fill="#383535"/>
<path d="M3.8147e-06 5L14.7224 30.5H-14.7224L3.8147e-06 5Z" fill="#383535"/>
<path d="M1.90735e-06 56L-14.7224 30.5L14.7224 30.5L1.90735e-06 56Z" fill="#383535"/>
<path d="M68 4L82.7224 29.5H53.2776L68 4Z" fill="#383535"/>
<path d="M68 55L53.2776 29.5L82.7224 29.5L68 55Z" fill="#383535"/>
<path d="M34 62L48.7224 87.5H19.2776L34 62Z" fill="#383535"/>
<path d="M34 113L19.2776 87.5L48.7224 87.5L34 113Z" fill="#383535"/>
<path d="M34 5L48.7224 30.5H19.2776L34 5Z" fill="#383535"/>
<path d="M34 56L19.2776 30.5L48.7224 30.5L34 56Z" fill="#383535"/>
<path d="M3.8147e-06 62L14.7224 87.5H-14.7224L3.8147e-06 62Z" fill="#383535"/>
<path d="M1.90735e-06 113L-14.7224 87.5L14.7224 87.5L1.90735e-06 113Z" fill="#383535"/>
<path d="M68 61L82.7224 86.5H53.2776L68 61Z" fill="#383535"/>
<path d="M68 112L53.2776 86.5L82.7224 86.5L68 112Z" fill="#383535"/>
<path d="M34 119L48.7224 144.5H19.2776L34 119Z" fill="#383535"/>
<path d="M34 170L19.2776 144.5L48.7224 144.5L34 170Z" fill="#383535"/>
<path d="M187 146L201.722 171.5H172.278L187 146Z" fill="#383535"/>
<path d="M187 197L172.278 171.5L201.722 171.5L187 197Z" fill="#383535"/>
<path d="M204 118L218.722 143.5H189.278L204 118Z" fill="#383535"/>
<path d="M204 169L189.278 143.5L218.722 143.5L204 169Z" fill="#383535"/>
<path d="M204 175L218.722 200.5H189.278L204 175Z" fill="#383535"/>
<path d="M204 226L189.278 200.5L218.722 200.5L204 226Z" fill="#383535"/>
<path d="M153 204L167.722 229.5H138.278L153 204Z" fill="#383535"/>
<path d="M153 255L138.278 229.5L167.722 229.5L153 255Z" fill="#383535"/>
<path d="M119 261L133.722 286.5H104.278L119 261Z" fill="#383535"/>
<path d="M187 260L201.722 285.5H172.278L187 260Z" fill="#383535"/>
<path d="M187 311L172.278 285.5L201.722 285.5L187 311Z" fill="#383535"/>
<path d="M187 204L201.722 229.5H172.278L187 204Z" fill="#383535"/>
<path d="M187 255L172.278 229.5L201.722 229.5L187 255Z" fill="#383535"/>
<path d="M153 261L167.722 286.5H138.278L153 261Z" fill="#383535"/>
<path d="M170 176L184.722 201.5H155.278L170 176Z" fill="#383535"/>
<path d="M170 227L155.278 201.5L184.722 201.5L170 227Z" fill="#383535"/>
<path d="M136 233L150.722 258.5H121.278L136 233Z" fill="#383535"/>
<path d="M136 284L121.278 258.5L150.722 258.5L136 284Z" fill="#383535"/>
<path d="M204 232L218.722 257.5H189.278L204 232Z" fill="#383535"/>
<path d="M204 283L189.278 257.5L218.722 257.5L204 283Z" fill="#383535"/>
<path d="M170 233L184.722 258.5H155.278L170 233Z" fill="#383535"/>
<path d="M170 284L155.278 258.5L184.722 258.5L170 284Z" fill="#383535"/>
</svg>
